<?xml version="1.0" encoding="utf-8" ?>
<svg xmlns="http://www.w3.org/2000/svg" xmlns:xlink="http://www.w3.org/1999/xlink" width="1051" height="1051">
	<defs>
		<linearGradient id="gradient_0" gradientUnits="userSpaceOnUse" x1="296.85471" y1="582.63586" x2="304.11194" y2="12.395986">
			<stop offset="0" stop-color="#13151A"/>
			<stop offset="1" stop-color="#454752"/>
		</linearGradient>
	</defs>
	<path fill="url(#gradient_0)" transform="scale(1.75109 1.75109)" d="M17.7124 126.648C23.2411 100.56 42.403 71.9144 61.7518 54.0015C69.2404 47.0685 77.6539 40.9888 86.2048 35.441C103.09 24.4854 124.205 15.7937 144.097 12.5404Q155.823 10.5513 167.696 9.84063C172.69 9.57856 177.749 9.71332 182.751 9.70052L209.145 9.61897L293.83 9.49039L386.086 9.47724L416.193 9.52653C432.128 9.59674 447.471 9.92167 463.127 13.2904C503.768 22.0345 540.996 48.6757 563.453 83.5239Q565.397 86.4854 567.205 89.532Q569.012 92.5786 570.68 95.7041Q572.348 98.8295 573.872 102.027Q575.396 105.225 576.773 108.489Q578.151 111.753 579.378 115.076Q580.606 118.399 581.682 121.774Q582.758 125.149 583.68 128.57Q584.602 131.99 585.367 135.449C587.126 139.527 587.754 152.316 587.907 157.064C588.539 176.649 587.989 196.862 587.977 216.508L588.012 322.632L587.908 400.165C587.84 412.255 588.443 424.58 587.523 436.633C586.401 451.326 582.47 466.361 577.34 480.141C562.905 518.915 530.747 551.264 493.37 568.345C479.478 574.694 463.729 579.077 448.53 580.68C430.258 582.607 411.677 581.842 393.328 581.851L306.07 581.847L210.166 581.829C191.223 581.803 172.112 582.597 153.231 580.894C140.76 579.769 127.691 576.177 115.99 571.805Q114.171 571.11 112.369 570.372Q110.567 569.634 108.784 568.852Q107 568.071 105.236 567.247Q103.472 566.423 101.728 565.556Q99.9844 564.69 98.262 563.781Q96.5397 562.873 94.8397 561.924Q93.1397 560.974 91.4631 559.984Q89.7865 558.994 88.1343 557.963Q86.482 556.933 84.8551 555.863Q83.2282 554.793 81.6275 553.684Q80.0269 552.575 78.4534 551.428Q76.8799 550.281 75.3346 549.097Q73.7892 547.912 72.2729 546.69Q70.7565 545.469 69.2701 544.211Q67.7836 542.953 66.3279 541.66Q64.8722 540.367 63.448 539.039Q62.0239 537.711 60.6322 536.349Q59.2405 534.987 57.8821 533.592Q56.5236 532.197 55.1992 530.77Q53.8748 529.342 52.5851 527.883Q51.2955 526.424 50.0414 524.935Q48.7873 523.445 47.5695 521.926Q46.3516 520.407 45.1708 518.858Q43.9899 517.31 42.8468 515.734Q41.7036 514.157 40.5987 512.554Q39.4939 510.951 38.428 509.321Q37.3621 507.691 36.3358 506.037Q35.3095 504.382 34.3234 502.703Q33.3373 501.024 32.392 499.322Q31.4466 497.619 30.5426 495.895Q29.6386 494.17 28.7764 492.424Q27.9142 490.678 27.0943 488.912Q25.7521 486.02 24.535 483.074Q23.318 480.127 22.2283 477.131Q21.1386 474.135 20.1783 471.095Q19.218 468.055 18.3889 464.977Q17.5598 461.898 16.8633 458.787Q16.1668 455.676 15.6043 452.538Q15.0418 449.4 14.6143 446.241Q14.1868 443.082 13.895 439.907C13.3393 433.963 13.4445 427.975 13.4434 422.011L13.4239 399.445L13.4518 318.669L13.4352 207.714L13.331 173.132C13.3015 166.125 13.0961 159.069 13.4095 152.07C13.7579 144.289 14.9843 133.925 17.7124 126.648Z"/>
	<path fill="#66666B" transform="scale(1.75109 1.75109)" d="M17.7124 126.648C23.2411 100.56 42.403 71.9144 61.7518 54.0015C69.2404 47.0685 77.6539 40.9888 86.2048 35.441C103.09 24.4854 124.205 15.7937 144.097 12.5404Q155.823 10.5513 167.696 9.84063C172.69 9.57856 177.749 9.71332 182.751 9.70052L209.145 9.61897L293.83 9.49039L386.086 9.47724L416.193 9.52653C432.128 9.59674 447.471 9.92167 463.127 13.2904C503.768 22.0345 540.996 48.6757 563.453 83.5239Q565.397 86.4854 567.205 89.532Q569.012 92.5786 570.68 95.7041Q572.348 98.8295 573.872 102.027Q575.396 105.225 576.773 108.489Q578.151 111.753 579.378 115.076Q580.606 118.399 581.682 121.774Q582.758 125.149 583.68 128.57Q584.602 131.99 585.367 135.449C585.105 135.213 584.77 135.04 584.581 134.742C584.1 133.984 581.506 122.472 580.618 120.013C580.317 120.49 580.504 120.287 580.06 120.623L579.823 120.514L578.935 120.894C578.498 120.655 578.089 120.448 577.618 120.285C577.578 121.381 577.642 122.197 578.338 123.041L577.852 122.201L577.906 122.704C576.294 118.222 574.678 113.759 572.734 109.407Q571.947 107.595 571.115 105.803Q570.283 104.012 569.407 102.241Q568.531 100.47 567.613 98.7212Q566.694 96.9725 565.732 95.2468Q564.77 93.5212 563.766 91.8198Q562.763 90.1183 561.717 88.4421Q560.672 86.7658 559.586 85.1158Q558.499 83.4657 557.373 81.8429Q556.246 80.2201 555.08 78.6255Q553.914 77.0308 552.709 75.4653Q551.504 73.8999 550.261 72.3645Q549.018 70.8291 547.738 69.3248Q546.457 67.8205 545.14 66.3481Q543.823 64.8757 542.47 63.4362Q541.117 61.9966 539.73 60.5908Q538.342 59.1849 536.92 57.8137Q535.498 56.4424 534.042 55.1065Q532.587 53.7706 531.099 52.4709Q529.612 51.1712 528.092 49.9084Q526.573 48.6457 525.023 47.4207Q523.474 46.1957 521.894 45.0092Q520.315 43.8227 518.706 42.6754Q517.098 41.5281 515.462 40.4207Q513.826 39.3134 512.164 38.2465Q510.501 37.1797 508.813 36.1541Q507.124 35.1284 505.411 34.1447Q503.698 33.1609 501.961 32.2195Q500.224 31.2781 498.465 30.3798Q496.706 29.4814 494.925 28.6266Q493.144 27.7718 491.342 26.961Q489.541 26.1502 487.72 25.384Q485.899 24.6178 484.06 23.8966Q478.975 21.9769 473.771 20.4096Q468.566 18.8423 463.267 17.6346Q457.968 16.427 452.598 15.5847Q447.229 14.7425 441.814 14.2695C434.43 13.6482 427.055 13.7401 419.652 13.6689Q400.101 13.4124 380.549 13.6853L289.923 13.7489L204.244 13.7696C190.712 13.7571 174.864 12.6306 161.706 13.9382C144.035 15.6941 125.675 20.2898 109.446 27.5599C76.3327 42.3941 48.7451 66.801 32.2584 99.3954C29.1876 105.466 26.3693 112.002 24.0871 118.418C23.7012 119.503 23.5244 120.62 23.1107 121.707L22.9035 121.638C22.7717 119.634 26.2156 113.612 25.978 112.056L24.9393 112.014C24.0283 112.414 23.6627 113.069 23.1181 113.858C22.7865 114.339 22.6517 114.305 22.1275 114.517C21.2966 116.148 18.34 125.087 18.2807 126.689C18.2759 126.82 18.2787 126.951 18.2777 127.082L17.7124 126.648Z"/>
	<path fill="#F5F3F1" transform="scale(1.75109 1.75109)" d="M181.418 58.7341C198.17 58.3065 215.026 58.6937 231.789 58.7016L325.604 58.709L381.14 58.6942C401.517 58.6567 421.303 57.6736 441.355 62.1963C462.115 66.8789 480.447 76.9294 496.401 90.9149C520.76 112.268 537.887 144.249 539.83 176.813C540.549 188.873 539.976 201.15 540.057 213.241L540.144 302.387L540.207 374.499L540.136 397.275C540.084 406.418 540.091 415.337 538.285 424.352Q537.863 426.435 537.373 428.502Q536.883 430.57 536.326 432.62Q535.768 434.671 535.143 436.701Q534.518 438.732 533.827 440.742Q533.136 442.751 532.379 444.737Q531.623 446.722 530.801 448.682Q529.979 450.641 529.094 452.573Q528.208 454.504 527.259 456.406Q526.311 458.307 525.3 460.176Q524.29 462.045 523.218 463.88Q522.147 465.715 521.016 467.514Q519.885 469.313 518.695 471.073Q517.506 472.834 516.259 474.555Q515.012 476.275 513.709 477.954Q512.407 479.633 511.049 481.268Q509.692 482.903 508.282 484.492C488.99 505.896 464.613 520.593 435.975 525.131C430.405 526.014 424.686 526.33 419.057 526.629C413.973 526.872 408.816 526.624 403.727 526.548Q392.418 526.384 381.108 526.438L279.355 526.46L211.011 526.671C194.426 526.652 177.385 527.691 161.061 524.214Q158.971 523.775 156.897 523.267Q154.823 522.758 152.767 522.182Q150.711 521.605 148.676 520.96Q146.64 520.316 144.627 519.604Q142.613 518.892 140.625 518.114Q138.637 517.335 136.675 516.492Q134.713 515.648 132.781 514.739Q130.848 513.831 128.947 512.859Q127.046 511.887 125.178 510.852Q123.31 509.817 121.478 508.721Q119.645 507.625 117.85 506.469Q116.055 505.313 114.299 504.097Q112.543 502.882 110.828 501.609Q109.114 500.337 107.442 499.008Q105.771 497.678 104.145 496.295Q102.519 494.911 100.939 493.474Q99.804 492.429 98.6952 491.357Q97.5864 490.285 96.5044 489.185Q95.4224 488.086 94.3679 486.96Q93.3133 485.835 92.2869 484.683Q91.2605 483.532 90.2629 482.355Q89.2653 481.179 88.297 479.978Q87.3287 478.777 86.3904 477.553Q85.452 476.329 84.5442 475.082Q83.6364 473.835 82.7597 472.565Q81.8829 471.296 81.0378 470.006Q80.1927 468.716 79.3797 467.405Q78.5667 466.094 77.7863 464.763Q77.006 463.433 76.2587 462.083Q75.5114 460.734 74.7977 459.366Q74.084 457.999 73.4043 456.614Q72.7245 455.23 72.0792 453.829Q71.4339 452.427 70.8234 451.011Q70.2129 449.594 69.6375 448.163Q69.0622 446.732 68.5224 445.287Q67.9825 443.842 67.4785 442.384Q66.9746 440.926 66.5068 439.456Q66.039 437.987 65.6076 436.506Q65.1762 435.025 64.7816 433.534Q64.3869 432.042 64.0292 430.542Q63.6715 429.041 63.3509 427.533Q63.0304 426.024 62.7472 424.507Q62.464 422.991 62.2184 421.468Q61.9727 419.945 61.7648 418.417Q61.5568 416.889 61.3867 415.356Q61.2165 413.822 61.0843 412.286Q60.9521 410.749 60.8578 409.209Q60.7636 407.669 60.7074 406.128C60.1086 392.667 60.6738 378.955 60.6899 365.471L60.7268 286.724L60.6762 215.328C60.7308 195.439 59.4726 174.611 64.1 155.147C68.7021 135.79 80.8477 114.688 94.2671 100.075Q95.3059 98.9294 96.3723 97.8096Q97.4388 96.6897 98.5323 95.5963Q99.6259 94.5029 100.746 93.4365Q101.866 92.3702 103.011 91.3315Q104.157 90.2929 105.328 89.2826Q106.499 88.2723 107.694 87.2909Q108.889 86.3095 110.108 85.3576Q111.326 84.4058 112.568 83.484Q113.81 82.5622 115.074 81.6711Q116.337 80.78 117.623 79.92Q118.908 79.0601 120.214 78.2318Q121.52 77.4036 122.846 76.6075Q124.171 75.8114 125.516 75.048Q126.861 74.2846 128.224 73.5543Q129.587 72.824 130.968 72.1272Q132.348 71.4305 133.746 70.7677Q135.143 70.1049 136.556 69.4765Q137.969 68.8481 139.397 68.2545Q140.825 67.6608 142.267 67.1023Q143.709 66.5437 145.164 66.0206Q146.619 65.4975 148.087 65.0101Q149.554 64.5227 151.033 64.0713Q152.513 63.62 154.002 63.205Q155.492 62.7899 156.991 62.4114Q158.491 62.033 159.999 61.6913Q161.507 61.3496 163.023 61.0449Q164.539 60.7402 166.062 60.4726Q167.585 60.2051 169.115 59.9749Q170.644 59.7446 172.178 59.5519Q173.713 59.3592 175.251 59.204Q176.79 59.0488 178.332 58.9313Q179.874 58.8138 181.418 58.7341Z"/>
	<defs>
		<linearGradient id="gradient_1" gradientUnits="userSpaceOnUse" x1="146.58467" y1="465.76562" x2="477.83026" y2="93.225342">
			<stop offset="0" stop-color="#BA5100"/>
			<stop offset="1" stop-color="#FF9434"/>
		</linearGradient>
	</defs>
	<path fill="url(#gradient_1)" transform="scale(1.75109 1.75109)" d="M74.1371 371.294C73.5737 357.233 74.0616 342.977 74.0702 328.891L74.0442 253.209L73.9907 207.11C73.9359 191.853 73.0695 176.173 76.4442 161.196C80.7333 142.161 90.6987 123.704 103.907 109.392C124.552 87.0215 153.022 73.1485 183.527 72.0167C196.439 71.5377 209.525 72.1149 222.457 72.0982Q267.748 71.8672 313.038 72.0892L380.001 72.065C399.434 72.0973 419.316 70.9028 438.386 75.2607C457.707 79.6759 475.513 89.7725 489.947 103.275C511.471 123.411 525.804 151.546 526.766 181.25C527.231 195.637 526.756 210.134 526.792 224.535L526.901 322.238L526.812 377.951C526.79 392.726 527.841 407.903 524.728 422.446C520.41 442.618 509.927 462.938 495.781 477.963C476.794 498.13 449.556 512.199 421.587 512.977C407.751 513.361 393.852 513.12 380.01 513.145L303.539 513.217L245.697 513.288C234.66 513.31 223.534 513.579 212.504 513.199C203.648 513.174 194.782 513.342 185.927 513.194C155.021 512.679 126.799 501.445 105.234 478.999C89.0509 462.155 77.2833 439.76 74.6353 416.4C73.8408 409.391 74.0208 402.287 74.0311 395.245Q74.0109 383.269 74.1371 371.294Z"/>
	<path fill="#B54F00" transform="scale(1.75109 1.75109)" d="M186.094 355.651C190.317 359.45 194.185 363.692 198.201 367.711C204.931 374.449 211.736 381.108 218.152 388.149C216.003 397.915 214.936 408.073 212.274 417.713C211.787 419.476 211.515 420.233 209.926 421.131C210.748 421.494 210.849 421.594 211.371 422.328C211.439 423.036 211.514 423.195 211.055 423.787C208 427.731 199.065 430.579 194.478 432.624C192.78 433.381 190.418 434.857 188.645 435.203C188.57 435.217 188.492 435.202 188.415 435.201C183.191 437.88 161.481 444.317 159.826 448.884C158.455 452.667 157.815 461.111 159.604 464.688C160.739 466.957 162.594 469.045 164.579 470.61L164.542 471.298C168.538 475.515 173.662 478.402 177.618 482.665C180.356 485.615 181.105 489.193 183.223 492.465C184.786 494.88 186.996 496.537 188.741 498.753C190.339 500.782 191.728 503.528 194.627 503.651C195.673 503.696 196.756 503.469 197.669 503.997C196.842 504.654 195.841 504.258 195.356 505.197C196.408 507.247 200.271 507.654 201.071 510.195L200.712 510.671C199.883 510.765 198.699 510.637 198.141 511.216L198.149 511.669C199.269 511.954 200.343 512.172 201.492 512.294L201.973 511.939C202.497 512.02 203 512.106 203.519 512.218C205.803 512.707 208.609 512.518 210.987 512.726C211.601 512.779 212.008 512.811 212.504 513.199C203.648 513.174 194.782 513.342 185.927 513.194C155.021 512.679 126.799 501.445 105.234 478.999C89.0509 462.155 77.2833 439.76 74.6353 416.4C73.8408 409.391 74.0208 402.287 74.0311 395.245Q74.0109 383.269 74.1371 371.294C74.1943 371.463 74.2552 371.63 74.3085 371.801C74.8112 373.406 74.6102 375.665 74.653 377.348C74.7578 381.466 74.1451 399.326 76.0455 402.094L76.4849 401.528L76.3569 401.121C76.605 400.517 76.4994 400.373 77.1278 400.106C77.7615 400.478 78.0652 400.973 78.4686 401.564C79.2186 401.75 80.7171 401.871 81.0541 402.618C81.0714 402.656 81.1893 403.344 81.1894 403.345C81.5031 404.85 85.2365 408.666 86.6934 409.42C87.8974 410.043 89.4565 409.805 90.7251 410.4C93.8911 411.886 97.8728 413.619 100.614 415.751C102.181 416.97 106.606 421.261 107.872 421.936C108.591 422.319 109.015 421.633 109.494 421.766C109.522 421.774 110.577 422.818 110.721 422.93L111.259 422.317C111.729 423.197 112.144 423.248 113.08 423.537C116.119 424.476 116.407 423.785 118.125 426.699C118.183 426.797 118.233 426.9 118.291 426.998C118.54 427.427 127.06 432.868 128.245 433.575C130.541 434.943 132.015 438.693 133.389 439.523C134.275 440.058 135.357 439.737 136.022 440.664L136.044 441.203L136.665 441.338C137.408 440.475 138.13 439.6 138.969 438.828C140.973 435.905 151.246 383.753 152.572 376.243C169.498 373.562 175.278 367.899 186.094 355.651Z"/>
	<path fill="#F5F3F1" transform="scale(1.75109 1.75109)" d="M186.094 355.651C190.317 359.45 194.185 363.692 198.201 367.711C204.931 374.449 211.736 381.108 218.152 388.149C216.003 397.915 214.936 408.073 212.274 417.713C211.787 419.476 211.515 420.233 209.926 421.131C210.748 421.494 210.849 421.594 211.371 422.328C211.439 423.036 211.514 423.195 211.055 423.787C208 427.731 199.065 430.579 194.478 432.624C192.78 433.381 190.418 434.857 188.645 435.203C188.57 435.217 188.492 435.202 188.415 435.201L187.763 434.855C184.096 436.024 180.661 437.822 176.966 438.971C171.279 440.739 165.232 441.887 159.681 444.03C156.213 445.369 146.749 451.702 143.651 451.222C142.509 450.305 142.292 448.989 141.91 447.64C141.748 447.067 141.834 447.296 141.546 446.765L141.435 446.588C142.175 444.806 148.273 438.809 149.864 436.983C154.83 431.282 159.602 425.41 164.578 419.718C170.535 412.905 176.672 406.309 182.355 399.256C184.782 399.746 187.064 400.206 189.493 399.392C191.935 398.573 193.953 396.87 195.01 394.508C196.019 392.254 196.204 389.547 195.289 387.233C194.438 385.079 192.677 383.374 190.559 382.463C188.408 381.538 186.055 381.461 183.878 382.354Q183.43 382.54 183.002 382.769Q182.574 382.998 182.171 383.268Q181.768 383.538 181.394 383.847Q181.019 384.155 180.677 384.5Q180.335 384.844 180.028 385.22Q179.722 385.596 179.454 386Q179.186 386.405 178.959 386.834Q178.732 387.263 178.549 387.712C177.502 390.338 177.597 393.218 178.663 395.805C176.348 398.965 173.602 401.876 171.032 404.831Q163.482 413.501 155.775 422.032C150.44 427.999 145.388 434.651 139.573 440.138L139.172 439.914L138.969 438.828C140.973 435.905 151.246 383.753 152.572 376.243C169.498 373.562 175.278 367.899 186.094 355.651Z"/>
	<defs>
		<linearGradient id="gradient_2" gradientUnits="userSpaceOnUse" x1="175.05061" y1="431.76297" x2="178.912" y2="439.93842">
			<stop offset="0" stop-color="#873300"/>
			<stop offset="1" stop-color="#B15204"/>
		</linearGradient>
	</defs>
	<path fill="url(#gradient_2)" transform="scale(1.75109 1.75109)" d="M141.546 446.765C144.441 446.385 154.327 441.835 158.001 440.46L187.719 429.305C195.124 426.587 202.611 424.09 209.926 421.131C210.748 421.494 210.849 421.594 211.371 422.328C211.439 423.036 211.514 423.195 211.055 423.787C208 427.731 199.065 430.579 194.478 432.624C192.78 433.381 190.418 434.857 188.645 435.203C188.57 435.217 188.492 435.202 188.415 435.201L187.763 434.855C184.096 436.024 180.661 437.822 176.966 438.971C171.279 440.739 165.232 441.887 159.681 444.03C156.213 445.369 146.749 451.702 143.651 451.222C142.509 450.305 142.292 448.989 141.91 447.64C141.748 447.067 141.834 447.296 141.546 446.765Z"/>
	<path fill="#F5F3F1" transform="scale(1.75109 1.75109)" d="M343.528 223.614C346.95 223.32 350.569 223.714 353.798 224.909C358.109 226.506 361.815 229.548 364.514 233.239C369.172 239.61 374.422 250.859 378.24 258.084C385.207 271.271 392.383 284.312 399.223 297.574Q415.396 328.371 431.201 359.357C436.032 368.804 441.064 378.106 445.544 387.733C439.646 388.32 434.14 389.426 428.915 392.359C417.363 398.846 413.379 410.364 409.991 422.373C408.07 419.11 406.402 415.644 404.602 412.308L389.069 383.043L346.779 303.718C341.181 292.788 335.174 282.066 329.581 271.132C331.178 269.176 333.126 267.395 334.871 265.562C333.035 264.17 331.229 262.732 329.41 261.316C323.495 267.907 316.883 274.065 310.678 280.398L273.082 318.763Q259.728 332.477 246.143 345.962C242.006 350.084 237.999 354.7 233.49 358.403C231.543 356.939 229.847 355.282 228.192 353.5C238.466 342.431 249.319 331.93 259.966 321.222Q281.038 300.139 301.885 278.833C309.523 271.168 317.364 263.655 324.786 255.783C323.911 253.802 323.343 251.839 323.016 249.696C322.088 243.621 323.552 237.628 327.255 232.712C331.391 227.222 336.843 224.588 343.528 223.614Z"/>
	<path fill="#E7781C" transform="scale(1.75109 1.75109)" d="M343.078 231.315Q343.439 231.257 343.802 231.217Q344.166 231.177 344.531 231.155Q344.896 231.133 345.261 231.129Q345.627 231.124 345.992 231.138Q346.358 231.152 346.722 231.183Q347.086 231.215 347.448 231.264Q347.811 231.313 348.17 231.38Q348.529 231.447 348.885 231.532Q349.241 231.617 349.592 231.718Q349.943 231.82 350.289 231.939Q350.634 232.058 350.974 232.194Q351.313 232.33 351.646 232.482Q351.978 232.634 352.303 232.803Q352.627 232.971 352.943 233.155Q353.259 233.339 353.565 233.539Q353.872 233.738 354.168 233.952Q354.465 234.166 354.75 234.394Q355.036 234.623 355.31 234.865Q355.584 235.107 355.845 235.362Q356.107 235.617 356.356 235.885Q356.605 236.153 356.841 236.432Q357.076 236.712 357.298 237.003Q357.519 237.294 357.726 237.595Q357.934 237.896 358.126 238.207Q358.318 238.518 358.494 238.839Q358.671 239.159 358.831 239.487Q358.992 239.815 359.136 240.151Q359.281 240.487 359.409 240.83Q359.536 241.172 359.647 241.521Q359.758 241.869 359.852 242.223Q359.945 242.576 360.021 242.934Q360.097 243.291 360.156 243.652Q360.215 244.013 360.255 244.376Q360.296 244.74 360.319 245.104Q360.342 245.469 360.347 245.835Q360.352 246.201 360.339 246.566Q360.326 246.931 360.296 247.296Q360.265 247.66 360.216 248.022Q360.168 248.385 360.101 248.744Q360.035 249.104 359.951 249.46Q359.867 249.816 359.766 250.167Q359.665 250.518 359.547 250.864Q359.428 251.21 359.293 251.55Q359.158 251.89 359.007 252.222Q358.855 252.555 358.688 252.88Q358.52 253.205 358.336 253.521Q358.153 253.837 357.954 254.144Q357.756 254.451 357.542 254.748Q357.329 255.045 357.101 255.331Q356.873 255.617 356.632 255.891Q356.39 256.166 356.135 256.428Q355.881 256.691 355.614 256.94Q355.346 257.19 355.067 257.426Q354.788 257.662 354.498 257.884Q354.207 258.106 353.906 258.314Q353.606 258.522 353.295 258.714Q352.984 258.907 352.664 259.084Q352.344 259.261 352.016 259.423Q351.688 259.584 351.353 259.729Q351.017 259.874 350.675 260.003Q350.333 260.131 349.984 260.243Q349.636 260.354 349.283 260.449Q348.93 260.543 348.572 260.62Q348.215 260.697 347.854 260.756Q347.492 260.815 347.128 260.857Q346.764 260.899 346.398 260.922Q346.032 260.946 345.666 260.952Q345.299 260.957 344.933 260.945Q344.566 260.933 344.201 260.902Q343.836 260.872 343.472 260.824Q343.109 260.776 342.748 260.71Q342.388 260.644 342.031 260.56Q341.674 260.476 341.322 260.375Q340.969 260.274 340.622 260.156Q340.275 260.038 339.935 259.902Q339.594 259.767 339.26 259.615Q338.926 259.464 338.601 259.296Q338.275 259.128 337.958 258.944Q337.64 258.76 337.333 258.561Q337.025 258.362 336.727 258.148Q336.43 257.934 336.143 257.705Q335.856 257.477 335.581 257.235Q335.306 256.992 335.043 256.737Q334.78 256.481 334.53 256.213Q334.28 255.945 334.043 255.665Q333.807 255.385 333.584 255.094Q333.362 254.803 333.154 254.501Q332.946 254.199 332.753 253.887Q332.56 253.575 332.383 253.255Q332.205 252.934 332.044 252.605Q331.883 252.275 331.738 251.939Q331.593 251.602 331.464 251.259Q331.336 250.915 331.225 250.566Q331.113 250.217 331.02 249.862Q330.926 249.508 330.849 249.149Q330.773 248.791 330.714 248.429Q330.655 248.067 330.614 247.703Q330.574 247.339 330.551 246.973Q330.528 246.607 330.523 246.24Q330.518 245.874 330.531 245.507Q330.544 245.141 330.575 244.776Q330.606 244.41 330.655 244.047Q330.704 243.684 330.771 243.323Q330.838 242.963 330.922 242.606Q331.007 242.249 331.109 241.897Q331.211 241.545 331.33 241.198Q331.449 240.852 331.585 240.511Q331.721 240.171 331.873 239.837Q332.026 239.504 332.194 239.178Q332.363 238.853 332.547 238.536Q332.732 238.219 332.932 237.912Q333.132 237.605 333.346 237.307Q333.561 237.01 333.79 236.724Q334.019 236.438 334.262 236.163Q334.505 235.888 334.761 235.626Q335.017 235.364 335.285 235.114Q335.554 234.865 335.834 234.629Q336.115 234.393 336.407 234.171Q336.698 233.949 337.001 233.742Q337.303 233.534 337.615 233.342Q337.927 233.15 338.249 232.973Q338.57 232.797 338.899 232.636Q339.229 232.475 339.566 232.331Q339.903 232.187 340.247 232.059Q340.59 231.932 340.94 231.821Q341.289 231.711 341.644 231.617Q341.999 231.524 342.357 231.449Q342.716 231.373 343.078 231.315Z"/>
	<path fill="#F5F3F1" transform="scale(1.75109 1.75109)" d="M263.713 161.839C266.822 164.214 290.728 211.43 294.208 218.766C291.91 227.733 288.065 236.49 284.855 245.176Q276.261 269.036 267.072 292.674C265.02 298.033 262.055 308.772 259.237 313.118C256.811 316.859 250.933 321.788 247.65 325.144C241.313 331.622 235.224 338.373 228.717 344.679L224.238 348.884C216.838 341.94 209.781 334.64 202.338 327.732L241.996 221.146C249.258 201.415 256.018 181.401 263.713 161.839Z"/>
	<path fill="#F5F3F1" transform="scale(1.75109 1.75109)" d="M300.786 124.839C302.307 124.605 303.943 124.623 305.419 125.09C307.57 125.769 308.934 127.369 310.177 129.157C311.981 131.752 313.304 134.879 314.747 137.695Q318.373 144.812 322.131 151.861C329.357 165.442 336.7 178.983 343.72 192.672C347.984 200.987 351.971 209.443 356.263 217.745C348.872 216.238 341.544 216.196 334.546 219.286Q333.805 219.61 333.08 219.97Q332.356 220.33 331.65 220.726Q330.945 221.122 330.26 221.552Q329.575 221.982 328.912 222.446Q328.249 222.91 327.61 223.406Q326.97 223.902 326.357 224.429Q325.743 224.956 325.156 225.513Q324.569 226.07 324.011 226.655Q323.452 227.24 322.924 227.853Q322.395 228.465 321.897 229.103Q321.399 229.74 320.934 230.402Q320.468 231.064 320.036 231.748Q319.604 232.432 319.207 233.136Q318.809 233.841 318.447 234.564Q318.085 235.287 317.759 236.028Q317.433 236.768 317.144 237.524C316.49 239.282 316.118 241.096 315.715 242.924C313.283 236.163 308.996 230.01 305.666 223.648C295.826 204.847 285.726 186.15 276.122 167.233C273.227 161.531 269.279 155.852 267.001 149.908C266.431 148.42 265.71 146.118 266.489 144.589C267.338 142.924 268.998 141.571 270.501 140.505C273.667 138.261 277.562 136.578 281 134.733C287.267 131.37 293.951 126.723 300.786 124.839Z"/>
	<path fill="#F5F3F1" transform="scale(1.75109 1.75109)" d="M439.284 395.869Q439.823 395.805 440.364 395.768Q440.905 395.731 441.448 395.72Q441.99 395.709 442.533 395.725Q443.075 395.74 443.616 395.783Q444.157 395.825 444.695 395.893Q445.234 395.962 445.768 396.056Q446.302 396.151 446.831 396.272Q447.36 396.392 447.882 396.539Q448.405 396.685 448.92 396.857Q449.434 397.028 449.94 397.225Q450.446 397.422 450.941 397.643Q451.437 397.864 451.921 398.109Q452.405 398.354 452.877 398.622Q453.348 398.891 453.806 399.182Q454.264 399.473 454.707 399.786Q455.15 400.099 455.578 400.433Q456.005 400.768 456.415 401.122Q456.826 401.477 457.219 401.852Q457.611 402.226 457.985 402.619Q458.359 403.012 458.714 403.423Q459.068 403.834 459.402 404.262Q459.735 404.69 460.048 405.133Q460.36 405.577 460.651 406.035Q460.941 406.493 461.209 406.965Q461.477 407.437 461.721 407.922Q461.966 408.406 462.186 408.902Q462.407 409.398 462.603 409.904Q462.799 410.409 462.97 410.924Q463.141 411.439 463.286 411.962Q463.432 412.485 463.552 413.014Q463.672 413.543 463.766 414.077Q463.86 414.612 463.928 415.15Q463.996 415.688 464.037 416.229Q464.079 416.77 464.094 417.313Q464.109 417.855 464.097 418.398Q464.086 418.94 464.048 419.481Q464.01 420.023 463.945 420.561Q463.881 421.1 463.79 421.635Q463.7 422.17 463.583 422.7Q463.466 423.23 463.324 423.754Q463.182 424.277 463.014 424.793Q462.846 425.309 462.653 425.816Q462.461 426.324 462.243 426.821Q462.026 427.318 461.785 427.804Q461.543 428.29 461.279 428.764Q461.014 429.237 460.726 429.697Q460.439 430.158 460.129 430.603Q459.819 431.049 459.488 431.479Q459.157 431.908 458.805 432.322Q458.454 432.735 458.082 433.13Q457.711 433.526 457.321 433.903Q456.93 434.28 456.522 434.637Q456.114 434.995 455.689 435.332Q455.263 435.669 454.822 435.985Q454.381 436.301 453.925 436.595Q453.469 436.889 452.999 437.16Q452.529 437.431 452.047 437.679Q451.564 437.927 451.07 438.152Q450.576 438.376 450.071 438.576Q449.567 438.776 449.053 438.951Q448.54 439.125 448.018 439.275Q447.497 439.425 446.968 439.549Q446.44 439.673 445.906 439.771Q445.373 439.869 444.835 439.941Q444.292 440.014 443.746 440.059Q443.2 440.105 442.652 440.124Q442.105 440.143 441.557 440.134Q441.009 440.126 440.462 440.091Q439.916 440.056 439.371 439.994Q438.827 439.931 438.286 439.843Q437.746 439.754 437.21 439.638Q436.674 439.523 436.145 439.381Q435.616 439.239 435.094 439.072Q434.573 438.904 434.06 438.711Q433.547 438.518 433.045 438.299Q432.542 438.081 432.051 437.838Q431.56 437.596 431.081 437.329Q430.602 437.062 430.137 436.772Q429.673 436.483 429.223 436.17Q428.773 435.858 428.338 435.523Q427.904 435.189 427.487 434.834Q427.07 434.478 426.671 434.103Q426.272 433.727 425.892 433.333Q425.512 432.938 425.152 432.525Q424.792 432.112 424.452 431.682Q424.113 431.252 423.795 430.805Q423.478 430.359 423.182 429.898Q422.887 429.436 422.615 428.961Q422.343 428.485 422.094 427.997Q421.846 427.508 421.622 427.008Q421.398 426.508 421.199 425.998Q420.999 425.488 420.826 424.968Q420.652 424.448 420.504 423.921Q420.356 423.393 420.235 422.859Q420.113 422.325 420.018 421.785Q419.922 421.246 419.854 420.702Q419.786 420.158 419.744 419.612Q419.702 419.066 419.688 418.518Q419.673 417.97 419.686 417.423Q419.698 416.875 419.737 416.328Q419.777 415.782 419.843 415.238Q419.91 414.694 420.003 414.154Q420.096 413.614 420.215 413.08Q420.335 412.545 420.481 412.017Q420.626 411.489 420.798 410.968Q420.97 410.448 421.167 409.937Q421.364 409.425 421.586 408.925Q421.808 408.424 422.054 407.934Q422.301 407.445 422.571 406.968Q422.842 406.492 423.135 406.029Q423.429 405.566 423.745 405.119Q424.06 404.671 424.398 404.24Q424.736 403.808 425.094 403.394Q425.453 402.979 425.831 402.583Q426.21 402.187 426.607 401.81Q427.005 401.433 427.42 401.076Q427.836 400.719 428.269 400.383Q428.702 400.047 429.15 399.733Q429.599 399.419 430.063 399.127Q430.527 398.835 431.004 398.566Q431.482 398.298 431.972 398.053Q432.462 397.809 432.964 397.588Q433.466 397.368 433.978 397.173Q434.49 396.978 435.011 396.808Q435.532 396.638 436.06 396.494Q436.589 396.351 437.124 396.233Q437.659 396.115 438.2 396.024Q438.74 395.933 439.284 395.869Z"/>
	<defs>
		<linearGradient id="gradient_3" gradientUnits="userSpaceOnUse" x1="434.10638" y1="405.62338" x2="449.32999" y2="429.7944">
			<stop offset="0" stop-color="#CA6210"/>
			<stop offset="1" stop-color="#E87717"/>
		</linearGradient>
	</defs>
	<path fill="url(#gradient_3)" transform="scale(1.75109 1.75109)" d="M440.655 403.049Q441.019 403.019 441.385 403.007Q441.75 402.995 442.115 403.001Q442.481 403.007 442.845 403.031Q443.21 403.054 443.573 403.096Q443.936 403.138 444.297 403.197Q444.657 403.256 445.015 403.333Q445.372 403.411 445.725 403.505Q446.078 403.599 446.426 403.711Q446.774 403.823 447.116 403.951Q447.458 404.08 447.793 404.225Q448.129 404.37 448.457 404.532Q448.784 404.693 449.104 404.871Q449.423 405.048 449.734 405.241Q450.044 405.434 450.345 405.642Q450.645 405.849 450.935 406.072Q451.226 406.294 451.504 406.53Q451.783 406.767 452.05 407.016Q452.317 407.266 452.571 407.528Q452.825 407.791 453.067 408.065Q453.308 408.34 453.535 408.626Q453.762 408.912 453.975 409.209Q454.188 409.506 454.387 409.813Q454.585 410.12 454.768 410.437Q454.951 410.753 455.118 411.078Q455.285 411.403 455.436 411.736Q455.587 412.068 455.722 412.408Q455.856 412.748 455.974 413.094Q456.092 413.44 456.192 413.791Q456.293 414.143 456.376 414.498Q456.46 414.854 456.525 415.214Q456.591 415.573 456.639 415.936Q456.687 416.298 456.717 416.662Q456.747 417.026 456.759 417.391Q456.772 417.757 456.766 418.122Q456.76 418.488 456.737 418.852Q456.713 419.217 456.672 419.58Q456.63 419.943 456.571 420.304Q456.512 420.664 456.435 421.022Q456.358 421.379 456.264 421.732Q456.17 422.085 456.058 422.433Q455.947 422.781 455.819 423.123Q455.69 423.466 455.545 423.801Q455.4 424.136 455.239 424.464Q455.077 424.792 454.9 425.112Q454.723 425.432 454.53 425.742Q454.338 426.053 454.13 426.353Q453.922 426.654 453.7 426.944Q453.478 427.235 453.242 427.513Q453.006 427.792 452.756 428.059Q452.507 428.326 452.245 428.581Q451.982 428.835 451.708 429.077Q451.433 429.318 451.147 429.545Q450.861 429.773 450.564 429.986Q450.268 430.199 449.961 430.398Q449.654 430.596 449.338 430.779Q449.021 430.962 448.696 431.13Q448.372 431.297 448.039 431.448Q447.706 431.6 447.366 431.734Q447.027 431.869 446.681 431.987Q446.335 432.105 445.984 432.206Q445.632 432.307 445.277 432.39Q444.921 432.473 444.561 432.539Q444.202 432.605 443.84 432.653Q443.477 432.702 443.113 432.732Q442.749 432.762 442.383 432.775Q442.018 432.787 441.652 432.782Q441.286 432.776 440.921 432.753Q440.556 432.729 440.193 432.688Q439.83 432.647 439.469 432.588Q439.108 432.528 438.75 432.452Q438.393 432.375 438.039 432.281Q437.686 432.186 437.338 432.075Q436.989 431.964 436.647 431.835Q436.305 431.707 435.969 431.562Q435.633 431.417 435.305 431.255Q434.977 431.094 434.657 430.917Q434.337 430.739 434.026 430.546Q433.716 430.354 433.415 430.146Q433.114 429.938 432.823 429.716Q432.533 429.493 432.254 429.257Q431.975 429.021 431.708 428.771Q431.44 428.521 431.186 428.259Q430.931 427.996 430.69 427.722Q430.448 427.447 430.221 427.161Q429.993 426.875 429.78 426.577Q429.566 426.28 429.368 425.973Q429.17 425.666 428.986 425.349Q428.803 425.033 428.636 424.708Q428.468 424.383 428.317 424.05Q428.166 423.717 428.031 423.377Q427.897 423.037 427.779 422.691Q427.661 422.344 427.56 421.993Q427.459 421.641 427.376 421.285Q427.293 420.929 427.227 420.569Q427.161 420.21 427.113 419.847Q427.065 419.484 427.035 419.12Q427.005 418.756 426.993 418.39Q426.98 418.025 426.986 417.659Q426.992 417.293 427.015 416.928Q427.039 416.563 427.081 416.2Q427.122 415.837 427.181 415.476Q427.241 415.115 427.318 414.757Q427.395 414.4 427.489 414.047Q427.583 413.693 427.695 413.345Q427.807 412.997 427.935 412.655Q428.064 412.312 428.209 411.977Q428.354 411.641 428.516 411.313Q428.677 410.985 428.855 410.665Q429.032 410.345 429.225 410.034Q429.418 409.724 429.626 409.423Q429.834 409.122 430.056 408.832Q430.279 408.542 430.515 408.263Q430.752 407.984 431.002 407.717Q431.251 407.45 431.514 407.195Q431.777 406.941 432.052 406.699Q432.326 406.458 432.613 406.231Q432.899 406.003 433.196 405.79Q433.493 405.577 433.801 405.379Q434.108 405.18 434.425 404.997Q434.741 404.814 435.066 404.647Q435.392 404.48 435.725 404.329Q436.058 404.178 436.398 404.043Q436.738 403.909 437.084 403.791Q437.43 403.673 437.782 403.573Q438.134 403.472 438.49 403.389Q438.846 403.306 439.206 403.24Q439.565 403.175 439.928 403.127Q440.291 403.079 440.655 403.049Z"/>
	<path fill="#F5F3F1" transform="scale(1.75109 1.75109)" d="M183.796 346.002C183.056 344.786 182.687 343.604 183.049 342.181C183.307 341.167 184.123 340.198 185.075 339.773C185.883 339.413 186.871 339.424 187.667 339.812C191.98 341.912 230.586 380.947 231.612 384.362C231.651 384.493 231.682 384.626 231.717 384.757L231.902 383.964C232.162 384.222 232.433 384.475 232.637 384.783C233.36 385.872 233.297 387.426 232.957 388.633C232.502 390.25 231.326 392.161 229.757 392.909C228.791 393.369 227.814 393.286 226.85 392.885C223.723 391.583 219.518 385.618 216.898 383.039C212.069 378.287 207.547 373.21 202.652 368.541C197.013 363.163 190.97 358.162 185.648 352.446C184.847 351.585 184.171 350.668 183.759 349.557C183.271 348.239 183.239 347.283 183.796 346.002Z"/>
	<path fill="#B54F00" transform="scale(1.75109 1.75109)" d="M183.796 346.002Q196.506 359.004 209.452 371.77C214.256 376.547 218.984 381.782 224.148 386.158C225.145 387.004 226.647 388.395 227.996 388.424C229.013 388.446 229.767 387.843 230.405 387.124C230.999 386.453 231.379 385.577 231.717 384.757L231.902 383.964C232.162 384.222 232.433 384.475 232.637 384.783C233.36 385.872 233.297 387.426 232.957 388.633C232.502 390.25 231.326 392.161 229.757 392.909C228.791 393.369 227.814 393.286 226.85 392.885C223.723 391.583 219.518 385.618 216.898 383.039C212.069 378.287 207.547 373.21 202.652 368.541C197.013 363.163 190.97 358.162 185.648 352.446C184.847 351.585 184.171 350.668 183.759 349.557C183.271 348.239 183.239 347.283 183.796 346.002Z"/>
	<path fill="#F5F3F1" transform="scale(1.75109 1.75109)" d="M195.825 330.479C196.043 330.524 196.261 330.569 196.475 330.628C197.848 331.009 198.844 331.949 199.884 332.873C204.234 336.736 238.989 371.899 239.851 373.995C240.131 374.676 240.073 375.544 239.798 376.227C239.164 377.8 237.661 378.544 236.194 379.156C234.793 378.657 233.76 377.804 232.685 376.797C225.869 370.408 219.64 363.321 212.999 356.74L200.413 344.413C197.643 341.72 194.312 339.012 192.158 335.806C191.988 334.924 191.893 334.331 192.236 333.454C192.853 331.873 194.321 331.023 195.825 330.479Z"/>
</svg>
